<?xml version="1.0" standalone="no"?>
<!DOCTYPE svg PUBLIC "-//W3C//DTD SVG 20010904//EN"
 "http://www.w3.org/TR/2001/REC-SVG-20010904/DTD/svg10.dtd">
<svg version="1.0" xmlns="http://www.w3.org/2000/svg"
 width="768.000000pt" height="768.000000pt" viewBox="0 0 768.000000 768.000000"
 preserveAspectRatio="xMidYMid meet">

<g transform="translate(0.000000,768.000000) scale(0.100000,-0.100000)"
fill="#000000" stroke="none">
<path d="M0 3840 l0 -3840 3840 0 3840 0 0 3840 0 3840 -616 0 -615 0 -25 -29
c-53 -64 -171 -93 -209 -51 -9 10 -15 26 -12 35 4 8 4 22 1 30 -5 13 -360 15
-3105 15 l-3099 0 0 -3840z m3300 3770 c0 -5 6 -7 13 -5 6 3 19 1 27 -5 24
-15 -45 -80 -84 -79 -35 0 -83 17 -55 18 9 1 20 8 23 17 4 12 2 15 -9 10 -12
-4 -13 -2 -3 13 7 11 19 17 32 14 17 -4 18 -3 6 6 -9 7 -10 11 -3 11 6 0 15
-5 18 -10 4 -6 11 -8 16 -4 5 3 7 10 4 15 -4 5 -1 9 4 9 6 0 11 -4 11 -10z
m3157 -122 c-3 -7 -5 -2 -5 12 0 14 2 19 5 13 2 -7 2 -19 0 -25z m-2227 -94
c0 -2 -5 -6 -10 -9 -6 -4 -17 9 -25 29 -21 50 -19 55 10 16 14 -19 25 -35 25
-36z m1360 16 c0 -5 -5 -10 -11 -10 -5 0 -7 5 -4 10 3 6 8 10 11 10 2 0 4 -4
4 -10z m-1997 -30 c4 -17 0 -19 -29 -18 -21 1 -30 4 -22 9 6 4 15 6 19 3 4 -2
9 3 13 11 7 20 13 19 19 -5z m1982 -5 c14 -14 25 -21 25 -16 0 6 13 -2 29 -17
16 -14 25 -29 20 -33 -5 -3 0 -14 12 -25 13 -10 19 -13 14 -5 -5 10 -4 12 3 7
19 -11 14 -26 -10 -36 -23 -9 -23 -9 2 -10 32 -1 56 -15 41 -24 -6 -4 -33 -10
-60 -13 -87 -10 -183 59 -167 120 6 24 45 77 57 77 5 0 20 -11 34 -25z m1182
-162 c-5 -4 -57 114 -56 125 0 4 14 -22 30 -57 16 -35 28 -66 26 -68z m-344
80 c-7 -2 -19 -2 -25 0 -7 3 -2 5 12 5 14 0 19 -2 13 -5z m67 -2 c0 -5 -9 -7
-20 -4 -11 3 -20 7 -20 9 0 2 9 4 20 4 11 0 20 -4 20 -9z m-2889 -41 c16 0 17
-4 9 -26 -10 -26 -10 -26 27 -20 35 5 36 5 10 -5 -34 -13 -81 -5 -124 21 -48
29 -43 44 13 36 26 -3 55 -6 65 -6z m-2021 -207 c0 -6 6 -14 13 -16 7 -3 8 -6
1 -6 -12 -1 -62 42 -85 74 -10 13 -2 11 28 -10 24 -17 43 -35 43 -42z m4867
-382 c24 -14 45 -32 48 -40 5 -12 3 -12 -11 0 -9 8 -50 32 -91 55 -40 22 -70
43 -67 47 7 6 25 -3 121 -62z m-1596 -308 c44 -24 62 -43 41 -43 -11 0 -102
58 -102 65 0 9 12 5 61 -22z m-3074 -55 c-3 -8 -6 -5 -6 6 -1 11 2 17 5 13 3
-3 4 -12 1 -19z m1040 -20 c-3 -8 -6 -5 -6 6 -1 11 2 17 5 13 3 -3 4 -12 1
-19z m2062 -87 c7 -5 12 -14 9 -21 -2 -7 -10 -4 -22 9 -19 21 -12 28 13 12z
m-2058 -28 c-20 -34 -70 -88 -71 -75 0 6 -5 12 -11 12 -5 0 -7 -5 -4 -10 7
-11 -30 -77 -120 -215 -28 -44 -62 -99 -75 -122 -33 -60 -36 -47 -4 18 15 29
27 59 27 66 0 6 5 11 10 10 5 -1 12 4 14 11 3 6 0 12 -6 12 -10 0 31 94 79
178 22 40 49 59 36 27 -3 -9 0 -15 9 -15 15 0 19 10 15 44 -1 14 3 18 17 14
13 -4 29 5 49 27 32 36 51 45 35 18z m2129 -13 c0 -5 -9 -10 -21 -10 -11 0
-17 5 -14 10 3 6 13 10 21 10 8 0 14 -4 14 -10z m1494 -16 c10 -25 -1 -29 -14
-5 -6 12 -7 21 -1 21 5 0 12 -7 15 -16z m-1414 -40 c0 -7 5 -16 12 -20 8 -5 9
-2 5 9 -4 11 -1 17 8 17 7 0 17 -9 20 -20 3 -11 17 -23 30 -26 21 -5 23 -9 14
-26 -12 -22 -3 -40 10 -19 7 11 12 11 29 0 20 -12 20 -14 5 -32 -16 -17 -16
-17 0 -11 10 4 17 1 17 -6 0 -7 7 -10 15 -6 11 4 19 -3 27 -22 6 -15 11 -30
10 -34 -1 -4 4 -5 12 -2 8 3 20 -9 31 -33 10 -21 22 -41 27 -44 5 -3 10 -19
12 -35 2 -17 10 -30 20 -32 9 -2 16 -13 16 -27 0 -13 5 -27 10 -30 8 -5 7 -11
-1 -21 -9 -11 -8 -14 4 -14 10 0 17 -15 22 -46 3 -25 4 -48 1 -52 -3 -3 -6 2
-6 11 0 10 -7 17 -15 17 -9 0 -12 -6 -8 -17 4 -10 2 -14 -4 -10 -6 4 -8 -3 -5
-18 2 -15 0 -25 -7 -25 -7 0 -9 -4 -6 -10 3 -5 -2 -10 -12 -11 -10 0 -13 -3
-7 -5 6 -3 10 -15 9 -27 -1 -12 0 -14 2 -4 2 9 8 17 12 17 4 0 6 -32 3 -72 -4
-62 -2 -70 12 -65 9 4 16 2 16 -3 0 -6 -9 -10 -20 -10 -14 0 -21 -9 -25 -37
-14 -83 -70 -212 -114 -262 -11 -13 -18 -28 -15 -32 6 -10 46 15 86 55 19 19
28 23 32 14 3 -7 3 -3 0 9 -3 15 1 23 15 28 12 4 18 12 14 21 -4 10 0 12 10 8
12 -4 15 -1 12 14 -3 15 4 23 26 31 16 5 29 12 29 15 0 3 -6 3 -14 0 -10 -4
-15 5 -18 29 -2 24 0 33 8 30 7 -2 15 0 19 6 3 7 -2 11 -14 11 -27 0 -35 17
-11 23 11 3 20 10 20 15 0 6 -9 8 -19 5 -17 -4 -19 -1 -11 31 4 21 4 36 -1 36
-5 0 -9 -4 -9 -10 0 -5 -5 -10 -11 -10 -8 0 -8 4 1 15 6 8 9 19 6 24 -8 12 44
109 78 146 20 22 26 24 26 11 0 -10 5 -14 10 -11 6 3 10 1 10 -5 0 -7 -8 -9
-22 -4 -13 3 -20 3 -16 -1 3 -3 -3 -16 -14 -27 -11 -11 -17 -26 -14 -34 3 -7
-3 -18 -12 -23 -9 -6 -11 -11 -5 -11 8 0 12 -14 12 -37 -2 -89 2 -111 24 -117
16 -4 18 -8 8 -20 -9 -11 -9 -15 1 -18 10 -4 10 -8 -1 -21 -7 -10 -10 -17 -6
-17 4 0 2 -6 -4 -14 -7 -8 -8 -16 -4 -18 4 -3 3 -4 -4 -2 -6 1 -19 -4 -30 -11
-17 -13 -17 -14 5 -8 13 3 22 1 22 -6 0 -7 -4 -10 -9 -7 -17 11 -42 -6 -36
-24 3 -10 2 -21 -4 -24 -5 -3 -7 -15 -4 -25 3 -10 0 -22 -6 -25 -7 -5 -8 -1
-5 9 5 11 2 14 -10 9 -9 -3 -16 -16 -17 -28 0 -20 -1 -20 -9 -1 -6 15 -9 16
-9 4 -1 -10 -17 -21 -43 -28 -24 -7 -49 -18 -55 -23 -7 -6 -20 -8 -28 -4 -8 3
-15 1 -15 -4 0 -5 -9 -7 -20 -5 -11 2 -20 0 -20 -4 0 -5 -10 -11 -21 -14 l-21
-6 20 20 c12 10 24 19 28 19 8 0 33 32 34 43 0 5 -6 5 -12 1 -7 -4 -4 2 7 13
11 11 23 19 26 17 3 -2 15 16 25 39 10 23 22 45 27 48 5 3 9 10 9 15 0 5 5 20
11 34 6 14 11 77 11 140 0 104 -3 124 -33 212 -18 54 -37 95 -42 92 -5 -3 -6
3 -2 12 4 10 2 15 -3 11 -6 -3 -11 4 -11 15 -4 48 -164 344 -217 401 -31 33
-31 33 -10 41 8 3 13 2 10 -3 -3 -5 2 -15 11 -22 15 -12 16 -12 10 4 -11 28 4
43 20 22 7 -11 13 -24 13 -31z m-1111 -8 c6 -25 11 -83 11 -130 l0 -84 33 -21
c107 -66 237 -297 237 -420 0 -49 -45 -106 -91 -116 -17 -4 -33 -13 -36 -21
-5 -15 101 -235 287 -593 49 -95 90 -179 90 -185 -1 -23 -41 39 -128 197 -121
219 -173 324 -252 509 -79 183 -154 314 -184 322 -12 3 -32 6 -45 6 -18 0 -22
4 -16 18 24 62 82 489 72 539 -8 42 10 24 22 -21z m-929 -10 c0 -3 -4 -8 -10
-11 -5 -3 -10 -1 -10 4 0 6 5 11 10 11 6 0 10 -2 10 -4z m-70 -126 c0 -5 -2
-10 -4 -10 -3 0 -8 5 -11 10 -3 6 -1 10 4 10 6 0 11 -4 11 -10z m1915 0 c3 -5
18 -10 33 -10 61 0 210 -104 263 -183 16 -24 10 -21 -25 15 -129 131 -244 179
-340 142 -14 -5 -17 -4 -12 4 4 7 16 12 27 12 11 0 22 7 25 15 7 17 20 20 29
5z m-1880 -10 c3 -5 1 -10 -4 -10 -6 0 -11 5 -11 10 0 6 2 10 4 10 3 0 8 -4
11 -10z m1171 -203 c36 -59 94 -171 128 -250 35 -78 91 -205 125 -282 34 -77
81 -180 104 -229 l43 -90 224 3 c124 1 270 6 325 11 97 10 240 0 268 -17 7 -4
15 -8 20 -9 4 -1 8 -2 10 -4 1 -1 11 -3 21 -5 10 -2 22 -7 25 -12 3 -4 13 -9
21 -11 8 -1 24 -13 35 -25 12 -13 29 -21 43 -19 12 2 22 -1 22 -7 0 -6 -12
-11 -27 -12 -28 0 -28 0 -4 -10 16 -6 28 -6 36 1 10 8 15 2 20 -29 4 -23 7
-44 7 -48 0 -5 9 -30 20 -58 35 -87 58 -178 57 -225 -1 -48 -4 -42 -14 30 -7
59 -17 74 -44 65 -29 -9 -50 -53 -76 -161 -25 -103 -41 -132 -85 -150 -26 -11
-31 -11 -39 5 -7 13 -3 32 16 70 18 37 27 73 30 124 4 65 2 76 -22 112 -15 23
-48 52 -76 68 -28 15 -49 33 -46 40 7 23 97 40 156 30 53 -10 53 -10 30 8 -13
9 -26 16 -30 13 -4 -2 -42 5 -85 16 -94 23 -174 26 -213 5 -27 -14 -30 -13
-55 12 -14 14 -26 32 -26 39 0 20 62 35 143 36 130 0 211 -34 293 -124 26 -29
42 -46 36 -38 -9 13 -7 16 8 16 10 0 17 -3 15 -7 -3 -3 7 -17 22 -30 l26 -24
-19 34 c-10 18 -25 36 -32 38 -9 4 -10 9 -1 19 9 11 9 14 0 14 -15 0 -87 70
-84 81 2 4 -4 6 -12 3 -11 -4 -15 1 -15 17 0 15 -3 19 -8 12 -5 -8 -19 -1 -46
23 -57 50 -157 79 -276 79 -107 0 -142 -12 -168 -60 -44 -81 -245 -397 -338
-532 l-105 -153 53 -1 53 -1 -55 -10 c-30 -5 -106 -8 -167 -6 -101 4 -111 2
-99 -11 22 -25 71 -129 148 -309 38 -92 77 -180 86 -197 14 -27 16 -28 22 -10
6 18 8 18 34 -8 15 -15 31 -25 36 -22 4 2 13 -2 19 -9 7 -8 32 -24 57 -35 26
-13 48 -31 54 -45 5 -14 15 -28 23 -33 7 -4 33 -44 56 -88 44 -83 57 -99 104
-129 31 -21 32 -18 12 31 -23 55 -18 52 21 -13 45 -74 66 -97 123 -132 l46
-27 -225 -5 c-124 -3 -228 -3 -232 0 -4 3 -46 116 -93 250 -119 340 -217 582
-269 665 -68 111 -80 136 -66 145 7 4 50 5 96 2 110 -6 106 -10 249 223 48 79
59 103 39 85 -21 -19 -26 -21 -21 -7 4 10 3 16 -2 12 -13 -7 -42 5 -36 16 3 4
13 6 23 2 9 -3 6 3 -8 13 -14 10 -31 24 -37 30 -15 15 -17 38 -3 29 6 -3 10
-1 10 4 0 6 -5 11 -11 11 -5 0 -8 4 -5 9 4 5 1 11 -5 13 -7 2 2 25 21 58 57
96 120 230 110 231 -5 1 -21 1 -35 1 -90 0 -97 -2 -91 -19 33 -95 -150 264
-288 565 -75 165 -164 347 -203 415 -18 33 -33 62 -33 65 0 10 31 -38 106
-161z m-1426 138 c-7 -8 -17 -15 -23 -15 -6 0 -2 7 9 15 25 19 30 19 14 0z
m-84 -76 c-89 -99 -141 -242 -152 -424 -9 -136 19 -252 77 -314 12 -12 19 -25
15 -28 -13 -14 -89 102 -105 162 -6 22 -11 84 -11 137 0 206 60 365 186 491
45 45 39 30 -10 -24z m3424 31 c0 -5 -7 -7 -15 -4 -8 4 -15 8 -15 10 0 2 7 4
15 4 8 0 15 -4 15 -10z m-1278 -32 c-7 -7 -12 -8 -12 -2 0 14 12 26 19 19 2
-3 -1 -11 -7 -17z m185 -2 c66 -34 203 -189 203 -229 0 -15 -13 -4 -46 43 -94
128 -186 190 -286 192 -21 0 -35 4 -33 9 9 13 127 2 162 -15z m-96 -39 c-10
-9 -11 -8 -5 6 3 10 9 15 12 12 3 -3 0 -11 -7 -18z m-132 -25 c-1 -16 -2 -15
-6 1 -2 9 -8 15 -13 12 -4 -3 -11 2 -14 10 -4 13 -2 14 14 5 11 -6 19 -18 19
-28z m53 0 c-3 -10 -7 -11 -12 -2 -4 6 -11 11 -16 10 -5 -1 -10 4 -12 12 -2 9
0 8 7 -2 9 -13 11 -12 11 3 0 15 2 16 14 5 7 -7 11 -19 8 -26z m-92 14 c0 -3
-4 -8 -10 -11 -5 -3 -10 -1 -10 4 0 6 5 11 10 11 6 0 10 -2 10 -4z m130 0 c0
-3 -4 -8 -10 -11 -5 -3 -10 -1 -10 4 0 6 5 11 10 11 6 0 10 -2 10 -4z m-2300
-50 c0 -3 -4 -8 -10 -11 -5 -3 -10 -1 -10 4 0 6 5 11 10 11 6 0 10 -2 10 -4z
m3050 -86 c0 -12 -9 -39 -20 -60 -15 -29 -17 -40 -8 -42 7 0 20 -2 28 -3 8 -1
23 5 33 13 10 9 17 11 17 4 0 -6 -14 -20 -31 -33 -23 -16 -29 -27 -25 -43 4
-15 -1 -27 -14 -36 -10 -7 -17 -17 -14 -22 3 -4 0 -8 -5 -8 -6 0 -10 -3 -9 -7
3 -18 -15 -41 -28 -36 -8 3 -21 0 -28 -6 -9 -8 -16 -8 -20 -2 -4 5 -2 12 4 16
5 3 10 14 10 23 0 13 -2 14 -9 3 -6 -9 -11 -10 -15 -2 -8 12 21 28 31 17 3 -3
11 2 18 11 13 17 9 53 -6 53 -5 0 -3 11 3 25 6 14 15 25 19 25 15 0 50 73 43
92 -8 25 -27 18 -34 -13 -4 -18 -7 -20 -12 -9 -10 26 22 57 60 59 6 1 12 -8
12 -19z m-943 -62 c-3 -7 -5 -2 -5 12 0 14 2 19 5 13 2 -7 2 -19 0 -25z m414
20 c22 -19 44 -49 33 -47 -5 1 -17 -1 -26 -5 -10 -4 -23 -6 -30 -3 -7 3 -3 6
10 6 21 1 33 21 11 21 -5 0 -7 5 -4 10 3 6 -1 10 -9 10 -8 0 -18 5 -21 10 -9
14 18 12 36 -2z m-474 -40 c-3 -8 -6 -5 -6 6 -1 11 2 17 5 13 3 -3 4 -12 1
-19z m613 -23 c0 -5 -5 -3 -10 5 -5 8 -10 20 -10 25 0 6 5 3 10 -5 5 -8 10
-19 10 -25z m-594 -27 c3 -12 16 -30 28 -40 11 -9 16 -17 9 -18 -11 0 -63 60
-63 73 0 16 19 5 26 -15z m1063 -12 c-7 -14 -16 -26 -21 -26 -5 0 -1 14 7 31
20 37 31 33 14 -5z m-3515 8 c3 -8 2 -12 -4 -9 -6 3 -10 10 -10 16 0 14 7 11
14 -7z m3326 1 c0 -8 -2 -15 -4 -15 -2 0 -6 7 -10 15 -3 8 -1 15 4 15 6 0 10
-7 10 -15z m-2630 -72 c-12 -21 -18 -29 -14 -18 4 11 12 35 18 53 6 18 12 27
14 18 2 -8 -6 -32 -18 -53z m2760 53 c0 -3 -4 -8 -10 -11 -5 -3 -10 -1 -10 4
0 6 5 11 10 11 6 0 10 -2 10 -4z m-110 -24 c0 -11 -22 -32 -33 -32 -5 0 -4 6
2 13 6 8 8 17 4 20 -3 4 1 7 10 7 10 0 17 -4 17 -8z m190 -2 c0 -5 -5 -10 -11
-10 -7 0 -23 -12 -36 -26 -13 -14 -26 -24 -29 -21 -6 6 57 67 69 67 4 0 7 -4
7 -10z m-70 -14 c0 -2 -8 -10 -17 -17 -16 -13 -17 -12 -4 4 13 16 21 21 21 13z
m-956 -31 l36 -24 1 27 c1 24 2 23 9 -8 4 -19 8 -26 9 -15 1 16 3 17 10 5 6
-8 7 -18 4 -23 -3 -5 -1 -12 4 -16 16 -10 42 -70 33 -76 -5 -3 -11 -1 -15 5
-3 6 -19 17 -35 25 -24 12 -29 13 -34 0 -3 -9 0 -12 10 -8 7 3 14 0 14 -6 0
-7 14 -17 30 -22 17 -6 30 -17 30 -25 0 -8 5 -14 11 -14 5 0 7 6 3 13 -4 6 2
4 12 -6 17 -15 17 -19 4 -28 -12 -8 -10 -9 8 -4 13 4 22 2 22 -4 0 -6 -4 -11
-10 -11 -5 0 -10 -4 -10 -10 0 -5 7 -7 15 -4 10 4 34 -14 69 -49 30 -31 64
-59 77 -62 40 -9 108 -12 103 -4 -2 4 0 10 6 14 5 3 10 2 10 -4 0 -12 27 -8
42 7 12 12 16 27 21 70 1 12 7 26 13 30 6 4 21 25 32 47 12 22 21 32 22 23 0
-9 -16 -46 -35 -82 -19 -36 -33 -66 -30 -66 2 0 -4 -15 -14 -32 -10 -18 -24
-32 -31 -30 -6 1 -9 -2 -6 -7 6 -10 -53 -41 -78 -41 -9 0 -16 -5 -16 -10 0
-15 70 -1 95 19 12 9 15 10 8 1 -7 -8 -13 -23 -13 -33 0 -16 -5 -19 -31 -13
-17 3 -46 6 -63 6 -24 0 -27 3 -16 10 12 8 9 10 -12 10 -35 0 -71 16 -133 59
-60 42 -70 51 -129 124 -41 51 -123 195 -114 201 2 2 14 -3 28 -11 14 -7 21
-13 17 -13 -4 0 -3 -9 3 -21 7 -11 14 -18 17 -15 3 3 0 13 -8 23 -12 15 -12
16 4 10 26 -10 20 9 -10 34 -16 12 -20 19 -10 16 9 -4 17 -2 17 3 0 4 -13 11
-30 15 -16 4 -30 11 -30 16 0 16 26 10 64 -16z m908 -27 c-7 -7 -12 -8 -12 -2
0 14 12 26 19 19 2 -3 -1 -11 -7 -17z m-491 -9 c9 -5 19 -18 22 -29 7 -26 -46
-80 -76 -79 -20 0 -19 2 5 10 32 12 42 34 27 60 -20 38 -99 49 -99 13 0 -8 -4
-14 -10 -14 -19 0 -10 37 13 48 23 11 89 6 118 -9z m-2827 -4 c-7 -16 -24 -21
-24 -6 0 8 7 13 27 20 1 1 0 -6 -3 -14z m558 -27 c-19 -50 -50 -89 -37 -48 4
14 12 28 17 31 5 3 9 8 9 10 -2 13 13 49 19 49 5 0 1 -19 -8 -42z m2848 13 c0
-9 -56 -41 -69 -41 -8 1 52 50 62 50 4 0 7 -4 7 -9z m522 -13 c44 2 49 -10 13
-26 -32 -15 -90 -15 -116 -2 -21 12 -27 35 -6 27 6 -2 21 -1 32 3 11 4 24 5
29 2 5 -3 26 -4 48 -4z m-3897 -8 c3 -5 2 -10 -4 -10 -5 0 -13 5 -16 10 -3 6
-2 10 4 10 5 0 13 -4 16 -10z m69 -54 c4 -27 9 -53 12 -58 3 -4 1 -8 -4 -8
-12 0 -24 29 -16 41 3 5 1 9 -3 9 -5 0 -7 16 -5 36 5 44 8 41 16 -20z m3222
25 c-3 -5 6 -12 22 -16 30 -7 62 -32 62 -48 0 -6 -8 -3 -18 6 -25 23 -72 39
-72 26 0 -8 -5 -7 -15 1 -8 7 -15 18 -15 24 0 7 4 6 9 -2 7 -11 9 -11 14 2 4
9 9 16 12 16 4 0 4 -4 1 -9z m-4706 -50 c-1 -10 -6 -7 -15 9 -19 33 -18 50 0
26 8 -11 15 -27 15 -35z m1707 -66 c11 -22 18 -46 15 -54 -2 -8 -1 -12 4 -9 5
3 19 -5 32 -18 13 -14 17 -24 10 -24 -17 1 -60 45 -87 90 -14 24 -21 51 -20
85 l0 50 13 -40 c7 -22 22 -58 33 -80z m563 95 c-6 -11 -20 -20 -31 -20 -12 0
-17 4 -14 11 4 6 13 8 21 5 8 -3 14 1 14 9 0 8 5 15 10 15 7 0 7 -6 0 -20z
m-825 -39 c-2 -12 11 -36 33 -62 20 -23 36 -47 34 -53 -2 -6 0 -8 4 -4 3 4 34
-17 68 -46 33 -29 70 -58 81 -65 18 -11 18 -11 -5 -5 -14 4 -49 19 -79 33 -43
20 -60 36 -80 73 -14 25 -36 58 -49 73 -13 15 -21 33 -18 41 3 8 1 14 -5 14
-6 0 -7 5 -4 10 11 17 24 11 20 -9z m784 -33 c-9 -16 -14 -19 -17 -9 -2 7 2
17 9 22 20 13 21 11 8 -13z m553 -55 c-9 -21 -39 -78 -65 -128 -26 -49 -63
-122 -83 -161 l-34 -70 19 -60 c17 -53 189 -509 258 -684 14 -36 41 -107 59
-158 75 -206 248 -630 273 -667 24 -37 69 -67 156 -102 l30 -13 -34 5 c-18 3
-118 5 -222 5 l-188 0 -31 82 c-32 83 -102 275 -220 608 -34 96 -109 294 -165
440 -56 146 -111 291 -121 323 -10 31 -21 57 -25 57 -8 0 -72 -195 -99 -299
-6 -25 -23 -76 -38 -114 -20 -55 -27 -66 -33 -51 -22 55 8 229 67 393 19 52
45 152 57 222 l23 128 -25 4 c-14 2 34 5 108 6 l134 1 -6 -35 c-3 -20 -2 -35
4 -35 10 0 76 99 121 180 61 109 90 160 94 160 2 0 -4 -17 -14 -37z m3510 10
c-10 -16 -22 -36 -25 -45 -6 -17 -27 -25 -27 -11 0 13 53 83 62 83 5 0 1 -12
-10 -27z m-4742 -23 c0 -5 -2 -10 -4 -10 -3 0 -8 5 -11 10 -3 6 -1 10 4 10 6
0 11 -4 11 -10z m2720 -6 c-14 -16 -80 -47 -87 -40 -2 2 10 9 26 16 17 7 36
18 42 26 6 8 16 14 21 14 6 0 5 -7 -2 -16z m390 11 c0 -2 -10 -10 -22 -16 -21
-11 -22 -11 -9 4 13 16 31 23 31 12z m1655 -17 c-9 -6 -19 -7 -22 -4 -4 3 -1
6 6 6 7 0 9 4 6 10 -4 6 1 7 11 3 15 -6 15 -7 -1 -15z m-1719 3 c11 9 14 8 14
-5 0 -22 -29 -33 -42 -15 -7 10 -8 8 -3 -8 4 -14 2 -23 -4 -23 -6 0 -11 8 -11
18 0 22 23 48 28 32 3 -8 8 -7 18 1z m-448 -42 c19 -1 21 -3 9 -6 -26 -7 -87
6 -87 17 0 6 10 6 26 0 14 -6 37 -11 52 -11z m107 1 c-3 -5 -11 -10 -16 -10
-6 0 -7 5 -4 10 3 6 11 10 16 10 6 0 7 -4 4 -10z m-2497 -61 c11 0 12 -2 4 -6
-6 -2 -9 -10 -6 -16 4 -7 -2 -3 -13 8 -11 11 -18 24 -15 30 3 5 7 4 10 -3 2
-7 11 -12 20 -13z m3142 -33 c0 -3 14 -65 31 -138 17 -73 33 -142 35 -153 3
-11 5 -54 6 -95 0 -41 3 -79 5 -83 8 -13 73 124 73 154 0 15 5 31 11 35 19 11
1 -55 -36 -131 -33 -70 -33 -70 -12 -77 17 -4 18 -6 5 -7 -10 -1 -18 -9 -19
-18 0 -15 -2 -15 -10 3 -6 11 -29 25 -55 33 -48 14 -47 13 -44 106 2 79 4 89
18 98 7 5 10 12 7 18 -4 5 -1 9 5 9 7 0 9 13 4 38 -9 51 -14 56 -29 35 -11
-15 -14 -16 -18 -3 -3 8 -17 48 -31 88 -14 39 -21 72 -16 72 5 0 23 -29 39
-65 16 -36 32 -65 34 -65 3 0 1 17 -3 38 -15 73 -19 112 -9 112 5 0 9 -2 9 -4z
m69 -44 c6 -21 12 -57 14 -80 3 -24 7 -45 11 -49 9 -9 7 -23 -3 -23 -12 0 -29
46 -36 95 -3 22 -8 52 -11 68 -9 42 14 33 25 -11z m61 23 c11 -13 10 -14 -4
-9 -9 3 -16 10 -16 15 0 13 6 11 20 -6z m51 -10 c1 -8 3 -19 4 -25 1 -5 3 -18
4 -27 1 -14 5 -11 17 10 19 34 29 34 30 -1 1 -15 -1 -21 -3 -14 -6 17 -23 15
-23 -3 0 -8 -4 -15 -10 -15 -5 0 -10 -5 -10 -11 0 -5 5 -7 10 -4 6 3 10 1 10
-4 0 -6 -7 -11 -16 -11 -8 0 -12 -5 -9 -10 4 -6 11 -8 16 -5 5 4 9 0 9 -7 0
-10 3 -9 11 2 8 12 10 12 7 -4 -2 -12 -12 -20 -26 -21 -23 -2 -46 -24 -36 -34
3 -3 9 1 14 9 9 13 10 13 11 0 0 -10 3 -8 9 5 7 18 9 18 15 3 4 -11 -1 -25
-15 -40 -12 -13 -19 -16 -15 -7 4 10 0 16 -10 16 -8 0 -15 -8 -15 -18 0 -10
-5 -21 -11 -25 -7 -4 -10 -1 -7 7 3 8 1 22 -4 32 -5 9 -6 22 -2 29 4 6 7 38 7
72 0 34 1 55 4 49 10 -27 21 -11 19 27 -1 37 12 59 15 25z m-4034 -47 c-2 -13
-4 -5 -4 17 -1 22 1 32 4 23 2 -10 2 -28 0 -40z m108 28 c0 -13 -2 -27 -5 -30
-5 -4 -6 43 -1 52 4 8 7 -1 6 -22z m43 -11 c-6 -14 -13 -23 -15 -21 -5 5 15
46 22 46 3 0 -1 -11 -7 -25z m3816 10 c-4 -8 -2 -15 2 -15 5 0 8 -46 8 -102
-2 -86 -4 -104 -18 -106 -18 -4 -22 13 -6 23 6 3 10 14 10 23 0 15 -2 15 -11
2 -9 -12 -9 -11 -3 5 5 11 9 54 10 95 1 83 2 90 9 90 2 0 2 -7 -1 -15z m-4007
-47 c-3 -8 -6 -5 -6 6 -1 11 2 17 5 13 3 -3 4 -12 1 -19z m1242 15 c-12 -3
-19 -20 -24 -59 -4 -31 -9 -54 -11 -51 -3 2 -2 30 2 61 6 49 9 56 28 55 15 -1
16 -3 5 -6z m-646 -10 c-7 -2 -21 -2 -30 0 -10 3 -4 5 12 5 17 0 24 -2 18 -5z
m-420 -18 c-3 -9 -8 -14 -10 -11 -3 3 -2 9 2 15 9 16 15 13 8 -4z m4007 6 c0
-5 -7 -14 -15 -21 -13 -10 -15 -9 -15 9 0 12 6 21 15 21 8 0 15 -4 15 -9z
m-4016 -58 c-4 -15 -7 -33 -7 -40 0 -7 -4 -13 -9 -13 -5 0 -6 10 -3 23 4 12 9
30 11 40 8 28 15 19 8 -10z m3982 -31 c-14 -15 -26 -21 -26 -14 0 6 4 12 8 12
5 0 15 12 22 28 8 17 14 22 18 13 2 -7 -7 -25 -22 -39z m-4107 11 c0 -25 -1
-26 -9 -8 -12 27 -12 35 0 35 6 0 10 -12 9 -27z m4777 11 c19 -9 31 -20 28
-25 -3 -5 5 -9 18 -10 22 0 22 -1 3 -9 -34 -15 -82 -11 -105 8 -22 18 -21 50
1 37 5 -4 9 -1 9 4 0 15 6 14 46 -5z m-4827 -44 c0 -9 -4 -8 -9 5 -5 11 -9 27
-9 35 0 9 4 8 9 -5 5 -11 9 -27 9 -35z m3915 -18 c-1 -2 -11 1 -21 7 -10 6
-12 11 -5 11 6 0 12 8 13 18 1 11 4 8 8 -8 4 -14 7 -27 5 -28z m327 41 c-8 -3
-30 -21 -48 -39 -19 -19 -38 -34 -44 -34 -6 0 -8 -4 -4 -9 3 -6 -5 -15 -17
-22 -13 -7 -26 -17 -30 -23 -4 -6 -10 -7 -14 -4 -3 4 11 22 32 40 21 18 52 47
69 65 16 17 39 31 50 31 13 0 15 -2 6 -5z m-3499 -35 c23 -8 27 -15 24 -39 -2
-17 -5 -31 -7 -32 -2 -2 -12 -9 -22 -16 -15 -12 -20 -11 -35 1 -24 22 -136 58
-178 58 -19 0 -44 -5 -55 -10 -10 -6 -19 -8 -19 -6 0 12 86 49 129 56 52 8
123 3 163 -12z m465 0 c-3 -8 -6 -5 -6 6 -1 11 2 17 5 13 3 -3 4 -12 1 -19z
m-1160 -10 c-3 -8 -6 -5 -6 6 -1 11 2 17 5 13 3 -3 4 -12 1 -19z m106 -49 c-8
-30 4 -116 22 -161 5 -13 2 -18 -11 -18 -14 0 -20 8 -21 33 -2 17 -6 54 -9 81
-4 30 -1 64 7 90 15 46 25 26 12 -25z m-146 29 c-3 -8 -6 -5 -6 6 -1 11 2 17
5 13 3 -3 4 -12 1 -19z m4253 2 c0 -5 -10 -10 -22 -9 -22 0 -22 1 -3 9 11 5
21 9 23 9 1 1 2 -3 2 -9z m-3063 -22 c-3 -8 -6 -5 -6 6 -1 11 2 17 5 13 3 -3
4 -12 1 -19z m-1150 -30 c-3 -8 -6 -5 -6 6 -1 11 2 17 5 13 3 -3 4 -12 1 -19z
m3970 7 c0 -8 -6 -15 -13 -15 -8 0 -11 6 -8 15 4 8 9 15 13 15 4 0 8 -7 8 -15z
m-3462 -35 c33 -16 52 -29 43 -30 -10 -2 -23 -3 -29 -4 -6 0 -24 -17 -41 -36
-27 -32 -29 -33 -23 -10 19 71 20 67 -26 75 -42 7 -42 8 -18 21 30 17 23 18
94 -16z m632 8 c-3 -8 -6 -5 -6 6 -1 11 2 17 5 13 3 -3 4 -12 1 -19z m3068 12
c3 -5 -1 -10 -9 -10 -9 0 -16 5 -16 10 0 6 4 10 9 10 6 0 13 -4 16 -10z m-85
-10 c-8 -5 -22 -9 -30 -9 -10 0 -8 3 5 9 27 12 43 12 25 0z m-150 -10 c0 -5
-8 -10 -17 -10 -15 0 -16 2 -3 10 19 12 20 12 20 0z m121 -25 c-18 -8 -36 -15
-40 -15 -13 1 45 29 59 29 8 0 0 -6 -19 -14z m94 7 c-18 -15 -65 -32 -65 -23
0 5 12 14 28 19 35 13 49 15 37 4z m-3058 -24 c-3 -8 -6 -5 -6 6 -1 11 2 17 5
13 3 -3 4 -12 1 -19z m2943 -35 c-61 -57 -62 -57 -58 -37 2 14 -2 18 -17 17
-11 -2 0 8 25 21 64 34 88 33 50 -1z m-4245 7 c3 -5 1 -10 -4 -10 -6 0 -11 5
-11 10 0 6 2 10 4 10 3 0 8 -4 11 -10z m75 -36 l25 -15 -25 7 c-14 3 -29 10
-34 15 -16 14 6 10 34 -7z m55 -32 c-3 -3 -11 0 -18 7 -9 10 -8 11 6 5 10 -3
15 -9 12 -12z m3839 -9 c4 -4 24 -6 44 -5 31 2 34 1 19 -9 -11 -6 -30 -9 -43
-6 -13 2 -24 0 -24 -5 0 -5 -4 -6 -10 -3 -12 7 -13 35 -2 35 5 0 12 -3 16 -7z
m221 -3 c-3 -5 -10 -10 -16 -10 -5 0 -9 5 -9 10 0 6 7 10 16 10 8 0 12 -4 9
-10z m-3935 -25 c0 -9 -44 -23 -54 -18 -4 3 -2 9 5 14 15 10 49 12 49 4z
m3818 -12 c-2 -13 -11 -17 -34 -15 -43 4 -59 -20 -79 -123 -17 -87 -41 -158
-29 -85 15 94 36 185 45 202 19 36 104 54 97 21z m-3723 -3 c4 -7 -3 -8 -22
-4 -38 9 -42 14 -10 14 14 0 29 -5 32 -10z m4985 -27 c9 -9 -26 -22 -45 -17
-33 9 -64 26 -68 39 -4 8 10 8 52 -3 31 -8 58 -16 61 -19z m-2457 -39 c-8 -13
-16 -24 -17 -24 0 0 -2 12 -3 27 -1 20 1 23 9 12 7 -10 8 -5 4 16 -6 28 -5 29
8 11 13 -16 13 -21 -1 -42z m1418 -71 c13 -16 12 -17 -3 -4 -10 7 -18 15 -18
17 0 8 8 3 21 -13z m-1570 -203 c63 1 125 2 139 3 22 2 25 -2 28 -35 3 -34 1
-38 -20 -38 -13 0 -34 9 -47 19 -20 16 -28 16 -60 5 -20 -7 -49 -19 -66 -28
-44 -23 -50 -21 -79 28 -27 47 -32 61 -17 52 5 -3 60 -6 122 -6z m1282 -13 c4
3 7 1 7 -5 0 -7 27 -9 89 -5 84 5 94 4 143 -21 29 -15 64 -36 78 -47 l25 -20
-34 17 -35 17 28 -34 28 -33 -23 -7 c-13 -4 -54 -18 -91 -32 l-68 -26 -57 30
c-107 56 -166 49 -255 -31 -27 -23 -48 -38 -48 -33 0 19 63 104 98 133 20 17
31 30 25 30 -23 0 -126 -50 -187 -92 -60 -40 -58 -28 4 29 26 24 198 118 215
118 6 0 14 6 18 13 6 9 12 10 21 3 7 -6 16 -8 19 -4z m-3538 -86 c60 -29 136
-99 169 -156 11 -20 3 -14 -25 18 -44 50 -100 93 -184 139 -66 37 -36 36 40
-1z m-42 -43 c37 -26 56 -46 99 -108 27 -38 17 -31 -61 43 -52 48 -98 87 -103
87 -5 0 20 -27 55 -60 40 -37 67 -71 70 -88 5 -25 2 -23 -36 19 -23 26 -64 67
-92 93 l-50 45 43 -4 c23 -2 57 -14 75 -27z m4560 -5 c-7 -2 -21 -2 -30 0 -10
3 -4 5 12 5 17 0 24 -2 18 -5z m-6533 -188 c13 -14 21 -25 18 -25 -2 0 -15 11
-28 25 -13 14 -21 25 -18 25 2 0 15 -11 28 -25z m5640 -61 l25 -15 -25 4 c-14
3 -34 2 -45 -2 -20 -8 -20 -8 1 -15 11 -3 31 -17 43 -29 21 -23 21 -24 3 -40
-10 -9 -33 -19 -50 -21 -24 -3 -37 3 -57 26 -32 36 -28 71 13 92 35 19 61 19
92 0z m-3791 -139 c0 -22 -6 -53 -14 -70 l-14 -30 7 30 c4 17 6 54 6 84 -1 34
2 48 7 40 5 -8 9 -32 8 -54z m-300 3 c3 5 21 9 40 9 30 0 32 -2 15 -14 -27
-19 -78 -16 -108 8 -39 31 -31 42 11 13 20 -13 39 -21 42 -16z m4551 -158 c-8
-5 -17 -7 -19 -4 -3 3 1 9 9 14 8 5 17 7 19 4 3 -3 -1 -9 -9 -14z m-60 -40 c0
-5 -5 -10 -11 -10 -5 0 -7 5 -4 10 3 6 8 10 11 10 2 0 4 -4 4 -10z m-911 -36
c10 -9 -66 -3 -79 6 -10 7 -1 8 30 4 25 -4 47 -8 49 -10z m-129 -31 c14 -9 27
-20 30 -23 3 -4 40 -34 84 -69 100 -79 224 -138 304 -145 47 -4 49 10 2 17
-22 3 -77 26 -122 51 -111 63 -186 128 -129 113 14 -3 18 -1 14 10 -4 10 -14
13 -30 8 -15 -3 -22 -2 -19 4 3 5 0 11 -6 14 -9 3 -7 7 6 12 11 5 21 3 26 -4
4 -7 10 -12 14 -12 3 1 20 -6 36 -14 38 -20 181 -13 216 10 31 20 31 5 0 -24
-13 -13 -26 -31 -29 -42 -4 -15 0 -18 18 -17 16 2 26 10 30 25 3 13 10 23 15
23 6 0 6 -9 0 -26 -12 -30 -12 -37 -2 -31 4 3 32 8 62 12 30 4 60 9 65 12 6 3
5 1 -1 -6 -11 -12 -122 -40 -191 -48 -24 -3 -43 -8 -43 -12 0 -5 18 -16 40
-26 39 -17 76 -17 165 2 17 3 38 6 47 7 9 0 15 3 13 6 -1 3 3 11 11 18 8 7 14
8 14 2 0 -5 5 -10 10 -10 6 0 10 8 10 17 0 9 3 14 6 10 3 -3 14 2 24 11 11 8
28 17 39 19 20 3 81 58 81 73 0 4 -7 13 -15 20 -9 7 -13 15 -10 18 3 3 14 -3
26 -13 16 -15 22 -16 28 -6 11 16 44 21 53 7 10 -14 10 -28 1 -23 -5 3 -9 -10
-10 -29 -2 -22 1 -34 10 -34 8 0 9 -3 1 -8 -19 -12 -21 -35 -7 -81 10 -34 10
-41 0 -33 -7 6 -22 9 -32 8 -11 -2 -26 1 -32 7 -18 13 -16 -4 3 -31 8 -12 11
-22 5 -22 -6 0 -15 9 -21 20 -14 26 -31 25 -64 -1 -99 -78 -349 -77 -531 1
-67 29 -174 110 -181 137 -3 13 -9 21 -13 19 -3 -2 -21 18 -39 45 -33 51 -27
63 18 32z m-2518 -45 c-3 -14 26 -26 87 -36 35 -7 67 -9 71 -7 4 2 14 -13 22
-33 12 -32 28 -45 94 -81 79 -42 79 -42 34 -36 -24 3 -132 6 -240 6 -107 0
-222 4 -255 7 l-60 8 30 16 c49 26 119 93 160 153 37 54 40 55 49 33 5 -13 9
-26 8 -30z m3018 -37 c0 -5 -7 -12 -16 -15 -14 -5 -15 -4 -4 9 14 17 20 19 20
6z m418 -45 c-7 -8 -16 -12 -21 -9 -11 7 2 23 19 23 12 0 12 -2 2 -14z m-33
-123 c16 -24 16 -24 -4 -14 -26 14 -49 54 -27 45 8 -3 22 -17 31 -31z m-2475
-429 c37 -50 85 -118 106 -150 43 -68 51 -76 83 -93 26 -14 79 -9 149 14 65
23 89 42 151 124 73 95 152 183 159 177 2 -3 -21 -33 -52 -66 -79 -86 -129
-164 -155 -240 -12 -36 -42 -101 -66 -145 -75 -132 -115 -228 -87 -211 19 12
63 100 57 115 -3 8 -3 12 1 8 8 -7 42 43 48 71 9 41 19 61 26 57 5 -3 6 4 3
15 -4 13 0 20 9 20 8 0 75 58 149 130 73 71 137 130 142 130 13 0 7 -24 -16
-62 -68 -115 -128 -221 -159 -283 -19 -39 -46 -88 -59 -110 -13 -22 -37 -66
-54 -98 -31 -60 -64 -85 -119 -93 -16 -2 -33 -9 -37 -16 -6 -9 -13 -10 -23 -3
-20 14 -216 399 -216 424 0 51 36 22 109 -86 23 -34 46 -72 51 -85 6 -13 14
-30 20 -38 5 -8 16 -31 24 -50 11 -27 15 -30 15 -14 2 42 -143 357 -210 455
-37 57 -123 162 -275 339 -28 33 -6 15 55 -45 56 -55 133 -141 171 -191z m134
101 c66 -87 76 -106 44 -77 -14 13 -67 78 -117 145 -79 105 -84 114 -36 62 31
-33 80 -91 109 -130z m1581 35 c-3 -5 -14 -10 -23 -10 -15 0 -15 2 -2 10 20
13 33 13 25 0z m140 -9 c-16 -14 -76 -31 -109 -31 -29 1 -30 2 -12 15 10 8 30
12 45 9 14 -3 37 -1 51 5 32 13 36 13 25 2z m-313 -21 c15 -7 25 -17 22 -22
-3 -5 2 -8 12 -6 11 2 19 -3 19 -11 0 -8 6 -16 14 -19 9 -3 11 0 6 8 -6 9 -4
11 4 5 8 -5 9 -11 3 -17 -6 -6 -23 -1 -48 16 -99 65 -273 57 -379 -17 -23 -17
-27 -17 -16 -3 17 20 79 54 136 73 48 16 188 12 227 -7z m-2199 -46 c53 -35
86 -64 110 -99 16 -23 9 -19 -33 18 -30 27 -87 67 -127 89 -40 22 -73 41 -73
43 0 9 88 -28 123 -51z m2374 27 c22 -16 45 -26 49 -21 5 4 34 10 65 12 42 2
55 0 52 -9 -3 -7 -9 -11 -13 -8 -5 3 -11 1 -15 -5 -3 -5 -24 -10 -46 -10 -43
0 -46 -4 -24 -26 8 -9 15 -20 15 -26 0 -7 -21 11 -47 38 -27 27 -59 57 -73 66
-14 9 -20 17 -14 17 6 1 29 -12 51 -28z m173 -62 c0 -11 -4 -18 -10 -14 -5 3
-7 12 -3 20 7 21 13 19 13 -6z m-4597 -92 l32 -29 -40 22 c-41 22 -80 64 -91
96 -4 11 10 1 30 -21 20 -22 51 -53 69 -68z m4711 84 c4 -5 -3 -7 -14 -4 -23
6 -26 13 -6 13 8 0 17 -4 20 -9z m-93 -106 c10 -11 15 -22 13 -24 -4 -4 -36
29 -64 65 -14 18 -13 18 10 -1 13 -11 32 -29 41 -40z m-3013 -19 c-23 -110 30
-312 113 -432 82 -119 127 -154 234 -185 59 -17 60 -18 20 -18 -62 -1 -151 46
-212 112 -140 153 -217 413 -164 551 17 42 21 28 9 -28z m2962 -10 c0 -12 -5
-7 -19 24 -11 24 -11 24 3 6 9 -11 16 -24 16 -30z m85 -16 c3 -5 1 -10 -4 -10
-6 0 -11 5 -11 10 0 6 2 10 4 10 3 0 8 -4 11 -10z m140 -78 c-6 -7 -35 18 -35
31 0 5 9 2 20 -8 11 -10 18 -20 15 -23z m-3125 -117 c16 -50 49 -111 112 -200
42 -60 44 -65 12 -30 -90 99 -156 243 -153 338 2 40 2 39 9 -13 4 -30 13 -73
20 -95z m1621 -87 c-37 -62 -91 -156 -119 -208 -28 -52 -58 -104 -66 -115 -25
-32 18 87 55 153 59 106 182 282 195 282 2 0 -27 -51 -65 -112z m-1532 -292
c53 -70 95 -111 166 -164 78 -57 80 -61 20 -28 -57 30 -113 80 -167 146 -40
49 -118 179 -118 195 0 5 14 -14 30 -44 17 -30 47 -77 69 -105z m2234 -53 c-7
-2 -19 -2 -25 0 -7 3 -2 5 12 5 14 0 19 -2 13 -5z m882 -273 c-3 -6 1 -7 9 -4
14 5 72 -20 110 -49 18 -13 18 -14 -11 -13 -17 0 -29 5 -26 9 3 5 -4 11 -16
14 -12 3 -21 10 -21 16 0 14 -13 0 -16 -17 -1 -8 9 -19 22 -26 13 -7 21 -17
18 -22 -5 -7 3 -10 22 -7 4 0 15 -13 25 -30 10 -17 22 -30 26 -29 10 3 73 -34
73 -43 0 -4 12 -10 28 -14 65 -16 74 -62 17 -89 -87 -42 -157 2 -234 145 -33
61 -81 177 -81 196 0 2 14 -4 30 -12 17 -9 28 -20 25 -25z m155 -134 c0 -3 -4
-8 -10 -11 -5 -3 -10 -1 -10 4 0 6 5 11 10 11 6 0 10 -2 10 -4z"/>
<path d="M2664 6048 c-4 -5 0 -14 7 -19 12 -7 11 -9 -1 -9 -8 0 -23 -20 -33
-44 -10 -25 -27 -55 -38 -67 -10 -12 -19 -27 -19 -33 1 -16 38 32 66 84 13 25
31 55 39 66 14 19 14 22 1 27 -9 4 -18 1 -22 -5z"/>
<path d="M5340 5624 c0 -8 5 -12 10 -9 6 3 10 10 10 16 0 5 -4 9 -10 9 -5 0
-10 -7 -10 -16z"/>
<path d="M5375 5409 c-11 -17 1 -21 15 -4 8 9 8 15 2 15 -6 0 -14 -5 -17 -11z"/>
<path d="M5410 5230 c-9 -6 -10 -10 -3 -10 6 0 15 5 18 10 8 12 4 12 -15 0z"/>
<path d="M5273 5043 c-7 -2 -13 -9 -13 -15 0 -7 5 -7 13 1 8 6 17 8 20 4 4 -3
7 -1 7 5 0 13 -7 14 -27 5z"/>
<path d="M5523 5494 c4 -6 -3 -21 -14 -33 -12 -12 -18 -28 -15 -36 2 -7 -6
-25 -19 -39 l-24 -26 24 2 c13 1 22 4 20 6 -2 2 8 29 21 59 19 43 22 58 13 67
-9 8 -10 8 -6 0z"/>
<path d="M4625 5240 c3 -5 14 -10 23 -10 15 0 15 2 2 10 -20 13 -33 13 -25 0z"/>
<path d="M4685 5170 c3 -5 8 -10 11 -10 2 0 4 5 4 10 0 6 -5 10 -11 10 -5 0
-7 -4 -4 -10z"/>
<path d="M2510 5186 c0 -11 30 -66 36 -66 2 0 -3 15 -12 33 -19 36 -24 44 -24
33z"/>
<path d="M2356 5075 c4 -9 16 -21 28 -27 19 -10 19 -9 -3 16 -28 30 -33 32
-25 11z"/>
<path d="M5885 4861 c-3 -5 -1 -12 5 -16 5 -3 10 1 10 9 0 18 -6 21 -15 7z"/>
<path d="M5880 4814 c0 -8 5 -12 10 -9 6 3 10 10 10 16 0 5 -4 9 -10 9 -5 0
-10 -7 -10 -16z"/>
<path d="M5357 3244 c-10 -11 -9 -26 2 -19 5 3 12 1 16 -5 7 -12 25 -4 25 12
0 5 -6 8 -14 5 -8 -3 -16 -1 -18 4 -2 6 -7 7 -11 3z"/>
<path d="M5780 1429 c0 -5 5 -7 10 -4 6 3 10 8 10 11 0 2 -4 4 -10 4 -5 0 -10
-5 -10 -11z"/>
<path d="M5816 1427 c3 -10 9 -15 12 -12 3 3 0 11 -7 18 -10 9 -11 8 -5 -6z"/>
</g>
</svg>
